# xmcd CD database file
#
# Track frame offsets:
#	200
#	9175
#	22220
#	34905
#	47030
#	65017
#	82662
#	110325
#	128390
#	152425
#	176507
#	209692
#	229175
#	248015
#	306700
#
# Disc length: 4423 seconds
#
# Revision: 0
# Processed by: cddbd v1.5.1PL2 Copyright (c) Steve Scherf et al.
# Submitted via: CDex 1.51
#
DISCID=be11450f
DTITLE=Malfatti, Radu - Ohrkiste
DYEAR=1992
DGENRE=Jazz
TTITLE0=Notes - Part 1
TTITLE1=Notes - Part 2
TTITLE2=Notes - Part 3
TTITLE3=Notes - Part 4
TTITLE4=Notes - Part 5
TTITLE5=Notes - Part 6
TTITLE6=Notes - Part 7
TTITLE7=Notes - Part 8
TTITLE8=Notes - Part 9
TTITLE9=Graukanal: Part 1
TTITLE10=Graukanal: Part 2
TTITLE11=Graukanal: Part 3
TTITLE12=Graukanal: Part 4
TTITLE13=Graukanal: Part 5
TTITLE14=Graukanal: Part 6
EXTD=YEAR: 1992
EXTT0=
EXTT1=
EXTT2=
EXTT3=
EXTT4=
EXTT5=
EXTT6=
EXTT7=
EXTT8=
EXTT9=
EXTT10=
EXTT11=
EXTT12=
EXTT13=
EXTT14=
PLAYORDER=
